<?xml version="1.0" encoding="utf-8"?>
<!-- Generator: Adobe Illustrator 23.1.1, SVG Export Plug-In . SVG Version: 6.00 Build 0)  -->
<svg version="1.1" id="图层_1" xmlns="http://www.w3.org/2000/svg" xmlns:xlink="http://www.w3.org/1999/xlink" x="0px" y="0px"
	 viewBox="0 0 1024 1024" style="enable-background:new 0 0 1024 1024;" xml:space="preserve">
<style type="text/css">
	.st0{fill:url(#SVGID_1_);}
	.st1{fill-rule:evenodd;clip-rule:evenodd;fill:#FFFFFF;}
</style>
<g>
	<g>
		<g>
			
				<linearGradient id="SVGID_1_" gradientUnits="userSpaceOnUse" x1="-64.0639" y1="179.7488" x2="1088.064" y2="844.9302" gradientTransform="matrix(1 0 0 -1 0 1024.3395)">
				<stop  offset="0" style="stop-color:#F83600"/>
				<stop  offset="1" style="stop-color:#FA829E"/>
			</linearGradient>
			<path class="st0" d="M930.5,1024h-837C41.9,1024,0,982.1,0,930.5v-837C0,41.9,41.9,0,93.5,0h837c51.6,0,93.5,41.9,93.5,93.5v837
				C1024,982.1,982.1,1024,930.5,1024z"/>
		</g>
	</g>
	<g>
		<g>
			<polygon class="st1" points="336.7,447.2 335.7,444.2 335,440.4 334.5,438.3 334.5,435.7 334.5,432.5 334.5,429.7 335.4,426.3 
				336.3,422.7 337.5,418.9 339.2,414.7 341.4,410.4 344.4,406 344.4,402.9 344.7,400.1 345.2,396.2 346.5,391.8 347.7,387.1 
				348.7,384.9 349.8,382.9 351.3,380.6 352.8,379 352.8,375.9 352.8,372.4 352.8,368.2 353.8,362.6 354.7,356.1 356.3,348.4 
				358.5,340.4 360.2,335.9 361.9,331.1 363.7,326.6 365.8,321.8 368,316.6 370.6,311.6 373.4,306.3 377,301.1 378.7,298.1 
				380.5,295.6 384.3,290 388.3,284.5 392.8,278.8 397.6,273.2 402.9,267.7 408.3,262.1 415,256 419.2,252.3 424.3,248.4 
				429.5,244.8 435.1,241.5 440.5,238.5 446.6,236 453,232.9 459.4,230.8 465.9,228.6 472.8,226.4 479.7,224.8 487,223.4 
				494.4,222.2 501.6,221.3 508.9,220.3 516.7,219.8 524,219.8 531.7,219.8 539.6,219.8 547.2,220.8 554.9,221.7 562.7,222.5 
				570,224.3 577.6,225.9 584.8,227.8 592.7,229.9 599.9,232.4 606.8,235.4 614.2,238.5 621,241.8 627.5,245.6 633.9,249.7 
				639.4,253.5 642,255.7 644.7,257.3 649.8,261.7 654.1,265.9 658.4,270.2 662.6,275 666.1,279.7 670.2,284.5 673.1,289.7 
				676,294.3 679.1,299.6 681.6,304.2 686,314.1 688.1,319.2 689.8,323.9 691.4,329 692.9,333.8 694,338 695.3,342.8 697.6,351.6 
				699.1,359.1 700.1,366.5 700.9,372.4 702.3,381.4 702.6,382.9 703.6,384.5 706.5,389.2 708.3,392.3 709.9,395.6 712,399.2 
				713.9,403.4 715,407.7 716.3,412.5 717.3,417.3 717.8,419.7 718.2,422.7 718.2,425.2 717.8,427.8 717.8,430.9 717,434 
				715.6,439.9 714.1,442.9 712.9,446.3 712.9,447.2 713.5,448.2 715,450.7 721.8,460.7 727.2,468.2 729.7,473.2 733.2,478.7 
				736.2,484.7 739.6,491.2 743.1,498.4 747,506.6 749.2,511.6 751.2,516.5 752.9,521.7 754.6,526.3 755.9,531.2 757.2,535.8 
				758.9,544.7 760.2,553.9 761.2,562 761.2,566.4 761.2,570 761.2,573.4 760.5,577.5 759.7,584.4 758.5,590.7 756.6,596.4 
				755.9,598.8 754.6,601.6 753.5,603.5 752.1,605.9 750.8,607.4 749.2,609.4 747.7,610.9 746.2,612.3 744.3,613.1 742.6,614 
				741.3,614.4 740.1,614.4 739.2,614.4 737.8,614 735.2,612.7 734.1,611.9 732.9,610.9 731.5,609.7 730.2,608.4 727.9,605.9 
				725.3,602.4 723.2,598.8 721.1,595.9 719,592.5 716.2,586.5 712.9,580.2 712.6,580 712,580 710.7,581 709.9,582.6 708.7,584.7 
				706.5,590.7 703.2,599.4 698.9,609.7 695.7,614.9 692.4,620.3 688.4,626.4 684.2,632.4 682,635.1 679.4,638 673.4,643.9 
				673.9,644.4 674.7,645.3 677.7,647.1 690.3,653.1 695.7,656.2 700.9,659.2 706.1,662.9 710.7,666.8 712.9,668.6 714.6,670.6 
				716.3,672.9 717.8,675.5 718.5,677.6 719.5,680.1 719.9,682.3 720.3,684.8 719.9,686.6 719.9,688.3 719.5,690.1 718.5,691.8 
				718.2,693 717.3,694.6 715,697.7 712.9,700.2 711.3,702 709.9,703.4 706.5,705.9 702.6,708.1 698.4,710.2 694,712.3 688.9,714.2 
				686.3,715 683.9,715.7 678.1,717.1 672.1,718.3 666.1,719.6 659.6,720.7 652.8,721 645.9,721.8 639.1,721.8 631.8,721.8 
				624.4,721.8 616.7,721.3 609.5,720.7 601.7,719.6 594,718.8 585.9,717.7 578,715.7 570.3,714.2 562.7,712 554.9,709.2 
				547.2,706.9 543.2,705.6 539.6,704.3 537.3,703.4 535,703 532.1,703 528.7,703 521.3,702.4 517.5,702 512.7,701.5 509.7,704.3 
				505.4,706.9 499.7,709.7 493.4,713.2 489.6,715 485.6,716.5 476.8,720.1 472,721.3 466.9,722.7 459.9,724 455.6,724.4 
				450.9,724.8 446.1,725.3 440.5,725.6 435.1,725.6 429.5,725.6 417.5,725.6 404.5,725.3 392,724 385.6,723.2 379.4,722.2 
				373.4,721.3 367.4,720.1 361.9,718.3 356.3,717.1 351.3,715 346.5,713.2 342.1,711.1 338.3,708.7 334.5,705.9 333.2,704.6 
				331.5,703 330.2,701.5 329,699.9 327.9,698.2 327.1,696.6 325.9,693 325.4,691.2 324.9,689.2 324.9,687.3 325.4,685.2 
				325.4,683.1 325.9,681 325.9,679.7 325.9,676.8 326.1,674.6 327.1,672 327.9,669.4 329.4,666.4 330.5,665.2 331.5,663.8 
				333.8,660.9 335.7,659.4 337.5,658.3 339.2,657 341.8,656.2 343.9,654.9 346.5,653.5 349.5,652.6 352.5,651.7 356,651 
				359.3,650.5 363.2,650 367.4,649.7 368.5,649.3 368.8,649.3 369.3,648.9 369.3,648.4 368.5,647.3 366.3,646.2 360.7,641.4 
				356.9,638.4 352.5,634.5 348.1,630.3 343.5,624.8 338.3,618.6 336.3,615.3 333.7,611.9 331.5,607.9 329.4,603.5 326.7,599.4 
				324.9,594.7 322.8,589.9 320.7,584.7 319.1,579.6 317.7,573.4 317.2,573.2 316.8,573.2 316.6,572.7 316,572.7 315.2,573.2 
				314.7,573.4 314.1,574.5 313.9,575.7 313.4,576.9 312.6,578.7 310,583.3 308.7,586.1 306.6,588.5 304.3,591.4 301.9,594.7 
				299.2,597.5 296.2,600.3 293.3,602.9 290.2,604.9 286.7,607.1 283.4,608.4 279.5,609.4 275.6,609.7 275.3,609.7 274.7,609.7 
				273.9,609.4 273.2,607.9 272,607.1 270.6,603.5 269.6,601.6 268.7,598.8 267.8,595.9 267.4,593 266.2,586.5 265.7,582.6 
				265.7,578.7 265.7,570 266.2,560.6 266.9,555.8 267.8,550.9 268.7,545.5 270.1,540.6 271.7,534.9 273.4,529.3 275.6,523.6 
				277.8,518.1 280.7,512.6 283.4,506.6 286.7,500.9 290.6,494.8 294.6,489.4 298.7,483.3 302.2,479.1 306.6,474.2 311.2,469.3 
				313.4,467 316,464.4 319.9,461 323.8,457.7 330.2,452 335,448.4 			"/>
		</g>
	</g>
</g>
</svg>
