<?xml version="1.0" encoding="utf-8"?>
<!-- Generator: Adobe Illustrator 23.1.1, SVG Export Plug-In . SVG Version: 6.00 Build 0)  -->
<svg version="1.1" id="图层_1" xmlns="http://www.w3.org/2000/svg" xmlns:xlink="http://www.w3.org/1999/xlink" x="0px" y="0px"
	 viewBox="0 0 1024 1024" style="enable-background:new 0 0 1024 1024;" xml:space="preserve">
<style type="text/css">
	.st0{fill:url(#SVGID_1_);}
	.st1{fill-rule:evenodd;clip-rule:evenodd;fill:#FFFFFF;}
</style>
<g>
	<g>
		<g>
			
				<linearGradient id="SVGID_1_" gradientUnits="userSpaceOnUse" x1="1088.064" y1="844.9302" x2="-64.064" y2="179.7489" gradientTransform="matrix(1 0 0 -1 0 1024.3395)">
				<stop  offset="0" style="stop-color:#44DA00"/>
				<stop  offset="1" style="stop-color:#B9E812"/>
			</linearGradient>
			<path class="st0" d="M930.5,1024h-837C41.9,1024,0,982.1,0,930.5v-837C0,41.9,41.9,0,93.5,0h837c51.6,0,93.5,41.9,93.5,93.5v837
				C1024,982.1,982.1,1024,930.5,1024z"/>
		</g>
	</g>
	<g>
		<g>
			<g>
				<path class="st1" d="M652.8,413.7c7.1,0,14.1,0.5,21.1,1.3c-19-88.3-113.4-153.9-221.2-153.9c-120.5,0-219.2,82.1-219.2,186.4
					c0,60.2,32.8,109.6,87.7,148l-21.9,65.9L376,623c27.4,5.4,49.4,11,76.8,11c6.9,0,13.7-0.3,20.5-0.9c-4.3-14.7-6.8-30-6.8-45.9
					C466.5,491.5,548.7,413.7,652.8,413.7z M535,354.3c16.5,0,27.4,10.9,27.4,27.4c0,16.4-10.9,27.4-27.4,27.4
					c-16.4,0-32.9-11-32.9-27.4C502.1,365.2,518.5,354.3,535,354.3z M381.6,409.1c-16.4,0-33-11-33-27.4c0-16.5,16.6-27.4,33-27.4
					s27.4,10.9,27.4,27.4C408.9,398.1,398,409.1,381.6,409.1z"/>
				<path class="st1" d="M852.9,584.6c0-87.6-87.7-159.1-186.2-159.1c-104.3,0-186.4,71.4-186.4,159.1
					c0,87.8,82.1,159.1,186.4,159.1c21.8,0,43.8-5.5,65.8-11l60.1,32.9l-16.5-54.8C820.1,677.8,852.9,634,852.9,584.6z M606.3,557.2
					c-10.9,0-21.9-10.9-21.9-21.9c0-10.9,11-21.9,21.9-21.9c16.6,0,27.4,11,27.4,21.9C633.7,546.3,622.8,557.2,606.3,557.2z
					 M726.8,557.2c-10.8,0-21.8-10.9-21.8-21.9c0-10.9,10.9-21.9,21.8-21.9c16.4,0,27.4,11,27.4,21.9
					C754.3,546.3,743.2,557.2,726.8,557.2z"/>
			</g>
		</g>
	</g>
</g>
</svg>
