<?xml version="1.0" encoding="utf-8"?>
<!-- Generator: Adobe Illustrator 23.1.1, SVG Export Plug-In . SVG Version: 6.00 Build 0)  -->
<svg version="1.1" id="图层_1" xmlns="http://www.w3.org/2000/svg" xmlns:xlink="http://www.w3.org/1999/xlink" x="0px" y="0px"
	 viewBox="0 0 1024 1024" style="enable-background:new 0 0 1024 1024;" xml:space="preserve">
<style type="text/css">
	.st0{fill:url(#SVGID_1_);}
	.st1{fill:#FFFFFF;}
</style>
<g>
	<g>
		<g>
			<g>
				
					<linearGradient id="SVGID_1_" gradientUnits="userSpaceOnUse" x1="1088.064" y1="844.9302" x2="-64.064" y2="179.7489" gradientTransform="matrix(1 0 0 -1 0 1024.3395)">
					<stop  offset="0" style="stop-color:#FFCD00"/>
					<stop  offset="1" style="stop-color:#FE7E61"/>
				</linearGradient>
				<path class="st0" d="M930.5,1024h-837C41.9,1024,0,982.1,0,930.5v-837C0,41.9,41.9,0,93.5,0h837c51.6,0,93.5,41.9,93.5,93.5v837
					C1024,982.1,982.1,1024,930.5,1024z"/>
			</g>
		</g>
	</g>
	<g>
		<g>
			<g>
				<path class="st1" d="M566.4,316.1c4.2-3.2,8.7-5.7,12-9.2c47.3-50.7,119.5-34.3,149.1,20.2c22.2,40.9,21.9,81.5-6.8,119.9
					c-16.9,22.6-41.1,33.4-67.8,36.6c-36.4,4.3-73.1,5.7-109.6,8.1c-34.8,2.2-69.7,4.9-104.6,5.9c-45.6,1.3-82.2-16.6-110-53.5
					c-28.3-37.6-36.3-79.3-27.2-124.2c7.4-36.6,27.2-65.9,58.5-87.9c34.5-24.3,71-31.7,111.1-18.2c43.2,14.5,71.3,44.7,87.1,86.9
					c1.3,3.6,2.7,7.2,4.3,10.7C563.1,312.7,564.5,313.8,566.4,316.1z M529.7,352.1c-4.4-14.4-6.4-30.2-13.6-43.1
					c-25.9-46-76.6-52.1-110-12.6c-24.1,28.4-27.6,62.7-13.6,96.4c18.9,45.8,72.2,58.3,106.2,27.3
					C518.6,402,527.1,379.4,529.7,352.1z M708.5,374.9c-0.2-1.9-0.1-7-1.2-12c-4.1-19.4-15.1-33.4-34.7-38.7
					c-18.9-5.1-34.4,2.4-46.6,16.5c-17.2,19.9-17,55.8-0.8,77.4c7.7,10.2,17.1,16.1,30.1,16.6C686.9,435.7,708.3,413.1,708.5,374.9z
					"/>
				<path class="st1" d="M460.1,731.4c9.2-12.2,17.1-23.8,26-34.4c9.8-11.7,15.5-24.5,14.5-39.9c-0.3-4.7-0.6-9.5,0-14.1
					c3.2-23.3-6.6-40.4-23.4-55.7c-18.3-16.8-35.5-34.9-52.7-52.8c-13.6-14.1-9.9-27,9.3-31.1c13.2-2.8,26.8-3.6,40.3-4.8
					c41.6-3.8,83.2-9.3,124.9-10.5c34.1-0.9,68.3,3.1,102.4,5.8c12.9,1,19.4,9.9,20.9,22.8c3.6,30.7,3.7,30.6-26.5,36.2
					c-28.2,5.2-56.3,10.8-84.4,16.4c-16.8,3.3-24.3,10.8-24.8,27.4c-0.8,23-0.6,46.1-0.2,69.1c0.2,12,6.1,20.2,19.3,18.7
					c14.4-1.6,28.8-3.8,42.9-7.2c11.9-2.8,10.3-13.3,9.1-22.1c-1.5-10.7-9.6-6.6-15.5-5.4c-26,5-26,5.1-25.9-21.4
					c0-5.2,0.1-10.3,0.2-15.5c0.1-8.2,3.8-12.4,12.5-13.9c26.3-4.7,52.6-10.1,78.7-15.7c11.2-2.4,16.9,0,16.7,12.9
					c-0.5,26.3,0.3,52.7-0.2,79c-0.4,18.6-11.1,32.7-28.8,36.9c-54.3,12.9-108.5,26.1-163.2,37.2
					C507.2,754.4,483.1,747.5,460.1,731.4z"/>
				<path class="st1" d="M247.9,642.3c1.5-25.1,1.9-50.2,4.7-75.2c2.9-25.8,15.2-35.8,40.8-32.3c34,4.7,67.8,10.7,101.3,17.9
					c10.2,2.2,20.5,9,28.2,16.3c19.8,18.7,38.3,38.7,57.1,58.4c13.2,13.8,16.4,41.2,5.4,56.6c-20.8,29-42.6,57.2-63.9,85.8
					c-7.8,10.5-18.2,15.6-31.1,13.6c-39.3-6-77.2-17-112.8-35c-20.8-10.5-25.8-30.4-27.1-51.2c-1.1-18.2-0.2-36.6-0.2-54.9
					C249.4,642.3,248.7,642.3,247.9,642.3z M395,669.2c-0.9-19.9-1.5-37-2.4-54c-0.9-19-4.9-23.9-23.2-27.9c-19.9-4.3-40-8-60-12.3
					c-19.2-4.2-27.2,0.9-27.5,20c-0.5,32.8-0.8,65.7,0.9,98.4c0.4,7.8,6.9,18.3,13.7,22.3c23.7,13.7,50.1,20.5,77.5,22.8
					c11.8,1,17.4-3.9,18.2-16.1C393.5,703.8,394.2,685.1,395,669.2z"/>
			</g>
		</g>
	</g>
</g>
</svg>
