<?xml version="1.0" encoding="utf-8"?>
<!-- Generator: Adobe Illustrator 23.1.1, SVG Export Plug-In . SVG Version: 6.00 Build 0)  -->
<svg version="1.1" id="图层_1" xmlns="http://www.w3.org/2000/svg" xmlns:xlink="http://www.w3.org/1999/xlink" x="0px" y="0px"
	 viewBox="0 0 1024 1024" style="enable-background:new 0 0 1024 1024;" xml:space="preserve">
<style type="text/css">
	.st0{fill:url(#SVGID_1_);}
	.st1{fill:#FFFFFF;}
</style>
<g>
	<g>
		<g>
			
				<linearGradient id="SVGID_1_" gradientUnits="userSpaceOnUse" x1="-64.0639" y1="179.7488" x2="1088.064" y2="844.9302" gradientTransform="matrix(1 0 0 -1 0 1024.3395)">
				<stop  offset="0" style="stop-color:#44DA00"/>
				<stop  offset="1" style="stop-color:#B9E812"/>
			</linearGradient>
			<path class="st0" d="M930.5,1024h-837C41.9,1024,0,982.1,0,930.5v-837C0,41.9,41.9,0,93.5,0h837c51.6,0,93.5,41.9,93.5,93.5v837
				C1024,982.1,982.1,1024,930.5,1024z"/>
		</g>
	</g>
	<g>
		<g>
			<g>
				<path class="st1" d="M512.8,319.5c68.8,0,137.7,0.7,206.5-0.3c32.2-0.4,56.1,24.3,60.2,50c0.7,4.7,1.5,9.5,1.5,14.2
					c0.1,80.3,0.2,160.6,0,240.8c-0.1,33.5-25.4,62.8-62.6,62.7c-137.9-0.5-275.9-0.2-413.8-0.2c-28.1,0-53.4-21.1-58.1-48.9
					c-1-5.9-1.5-12-1.5-18c-0.1-79.8-0.1-159.5-0.1-239.3c0-28.3,19.5-53.5,47.1-60.1c5.3-1.3,11.1-1,16.6-1
					C376.6,319.4,444.7,319.4,512.8,319.5C512.8,319.4,512.8,319.4,512.8,319.5z M281.6,654.7c8.8,7.4,17.9,9.4,27.7,9.3
					c78.2-0.3,156.4-0.9,234.6-0.9c57.9,0,115.8,0.6,173.7,0.9c9.5,0.1,18.2-2.3,26.2-9.2C688.4,594.7,633.3,534.7,578,474.6
					c-6.6,4.4-12.7,8.3-18.7,12.4c-33,22.3-59.2,22.3-92.4,0.2c-6.4-4.2-12.8-8.3-19.4-12.6C391.9,535,337,594.6,281.6,654.7z
					 M291.8,345c1.8,1.4,3.2,2.7,4.8,3.8c63.1,41,126.2,82.1,189.5,122.9c18.3,11.8,36.7,11,55.2-1C598,433.8,655,397.3,711.8,360.6
					c7.5-4.8,14.8-9.9,22.8-15.3C723.2,341.1,303.8,341,291.8,345z M756.5,634.3c0.8-4.7,1.9-7.9,1.9-11.1c0-80,0.1-159.9-0.3-239.8
					c0-7.1-2.7-14.3-4.4-22.5c-53.1,34.4-104.3,67.5-155.8,100.9C650.7,519.2,703.1,576.2,756.5,634.3z M427.3,461.5
					c-51.9-33.6-102.7-66.5-154.6-100.1c-1.5,5.2-3.6,9.4-3.8,13.7c-0.6,13.1-0.6,26.3-0.7,39.5c-0.3,68.3-0.5,136.6-0.7,204.8
					c0,4.2,0.9,8.4,1.6,14.2C322.7,575.4,374.6,518.9,427.3,461.5z"/>
			</g>
		</g>
	</g>
</g>
</svg>
